<svg xmlns="http://www.w3.org/2000/svg" width="34" height="23" viewBox="0 0 34 23">
  <defs>
    <style>
      .cls-1 {
        fill: #fff;
        fill-rule: evenodd;
      }
    </style>
  </defs>
  <path id="be-icon" class="cls-1" d="M12.685,21.374A5.533,5.533,0,0,0,15.009,20.3a5.862,5.862,0,0,0,1.457-1.686,6.479,6.479,0,0,0,.915-3.421,5.862,5.862,0,0,0-.8-3.141A4.616,4.616,0,0,0,14.2,10.157a4.939,4.939,0,0,0,1.57-1.222,4.915,4.915,0,0,0,.953-3.157,5.62,5.62,0,0,0-.945-3.273Q14.213,0.281,10.451.222H0.509V21.665H9.778A13.659,13.659,0,0,0,12.685,21.374ZM4.612,3.946H9.087a7.418,7.418,0,0,1,2.431.336,1.929,1.929,0,0,1,1.106,1.978,2.056,2.056,0,0,1-.837,1.884,4,4,0,0,1-2.176.531h-5V3.946Zm0,13.995V12.225H9.674a5,5,0,0,1,2.056.363,2.314,2.314,0,0,1,1.31,2.3,2.73,2.73,0,0,1-1.352,2.678,4.676,4.676,0,0,1-2.082.377H4.612Zm16.253,2.312A8.078,8.078,0,0,0,26.222,22.2a7.229,7.229,0,0,0,5.722-2.313,5.251,5.251,0,0,0,1.476-2.866H29.359a3.447,3.447,0,0,1-.819,1.09,3.275,3.275,0,0,1-2.208.728,3.908,3.908,0,0,1-2.192-.6A3.855,3.855,0,0,1,22.549,14.9H33.627a21.164,21.164,0,0,0-.131-3.146,7.975,7.975,0,0,0-1.212-3.278,6.249,6.249,0,0,0-2.629-2.346,8.349,8.349,0,0,0-3.577-.742,7.176,7.176,0,0,0-5.439,2.2,8.8,8.8,0,0,0-2.1,6.318Q18.544,18.3,20.865,20.252ZM23.706,9.711a3.087,3.087,0,0,1,2.374-.905,3.405,3.405,0,0,1,2.36.854A3.527,3.527,0,0,1,29.5,12.165H22.647A4.4,4.4,0,0,1,23.706,9.711Zm6.583-8.256H21.35V3.619h8.939V1.455Z"/>
</svg>
