<svg xmlns="http://www.w3.org/2000/svg" width="29.5" height="36.34" viewBox="0 0 29.5 36.34">
  <defs>
    <style>
      .cls-1 {
        fill: #fff;
        fill-rule: evenodd;
      }
    </style>
  </defs>
  <path id="Фигура_1" data-name="Фигура 1" class="cls-1" d="M250.042,4000.67q0-7.89,0-15.76a2.4,2.4,0,0,1,.225-1.19,0.851,0.851,0,0,1,.079-0.14,2.306,2.306,0,0,1,1.953-1.07c1.9,0.03,3.791.01,5.686,0.01h13.583a4.193,4.193,0,0,1,.794.02,3.027,3.027,0,0,1,.983.3,8.329,8.329,0,0,1,1.612,1.45c0.245,0.23.491,0.46,0.727,0.7,0.312,0.32.606,0.66,0.923,0.97,0.716,0.71,1.452,1.4,2.157,2.12a2.584,2.584,0,0,1,.764,1.88q-0.013,8.8,0,17.62c0,3,0,6.01,0,9.01a2.063,2.063,0,0,1-.35,1.23,1.162,1.162,0,0,1-.506.53c-0.206.09-.371,0.27-0.577,0.36a1.592,1.592,0,0,1-.611.12c-1.1.01-2.2,0.01-3.3,0.01h-20.23c-0.624,0-1.249.01-1.872-.01a1.978,1.978,0,0,1-1.667-.96,2.459,2.459,0,0,1-.38-1.38C250.048,4011.22,250.042,4005.94,250.042,4000.67Zm2-.01q0,7.935,0,15.88a0.351,0.351,0,0,0,.006.17,0.391,0.391,0,0,0,.2.16h24.894c0.339,0,.386-0.05.386-0.37q0-12.045,0-24.1c0-.29,0-0.29-0.292-0.29h-4.507a1.862,1.862,0,0,1-.335-0.02,3.016,3.016,0,0,1-1.193-.46,3.852,3.852,0,0,1-.787-0.75,2.464,2.464,0,0,1-.476-1.58c0.01-1.42,0-2.85,0-4.28,0-.62.035-0.53-0.524-0.53h-16.09a8.856,8.856,0,0,1-1.031-.01c-0.231-.03-0.253.06-0.252,0.23,0,0.06,0,.13,0,0.19Q252.039,3992.775,252.038,4000.66ZM273.3,3985.3c-0.167-.12-0.315-0.21-0.445-0.32a4.173,4.173,0,0,0-.37-0.36,0.731,0.731,0,0,0-.439-0.14c-0.161.02-.117,0.21-0.118,0.34,0,1.52-.007,3.04-0.006,4.57a0.647,0.647,0,0,0,.049.22,0.763,0.763,0,0,0,.813.5h4.483c0.244,0,.288-0.05.254-0.29a0.939,0.939,0,0,0-.082-0.23c-0.037-.1-0.077-0.19-0.124-0.31a0.258,0.258,0,0,1-.31-0.32,0.338,0.338,0,0,1-.328-0.29,0.2,0.2,0,0,0-.084-0.07,1.013,1.013,0,0,1-.59-0.6,0.2,0.2,0,0,0-.083-0.07c-0.1-.09-0.208-0.19-0.313-0.28,0.016-.02.031-0.03,0.046-0.05-0.213-.01-0.368-0.08-0.324-0.33a0.334,0.334,0,0,1-.346-0.32,1.087,1.087,0,0,1-.693-0.7,0.317,0.317,0,0,1-.318-0.33c-0.206-.02-0.375-0.08-0.326-0.34A0.311,0.311,0,0,1,273.3,3985.3Zm-11.725,6.28c0,0.69-.016,1.38,0,2.07a1.385,1.385,0,0,1-1.369,1.37c-1.39-.02-2.78,0-4.169-0.01a0.819,0.819,0,0,1-.868-0.41c-0.028-.06-0.2-0.06-0.223-0.12a1.982,1.982,0,0,1-.251-0.72c-0.024-1.44-.04-2.88,0-4.32a1.283,1.283,0,0,1,1.387-1.33c1.361-.03,2.723-0.02,4.085,0a1.365,1.365,0,0,1,1.411,1.43C261.553,3990.22,261.572,3990.9,261.572,3991.58Zm-1.29,0h0c0-.65,0-1.31,0-1.96a0.168,0.168,0,0,0-.2-0.21c-1.263.01-2.527,0-3.79,0.01-0.32,0-.323,0-0.323.33q0,1.83,0,3.66c0,0.33.01,0.34,0.342,0.33a1.486,1.486,0,0,1,.211,0c1.165,0,2.33-.01,3.5,0a0.217,0.217,0,0,0,.27-0.26C260.274,3992.84,260.282,3992.21,260.282,3991.58Zm1.22,20.55a0.847,0.847,0,0,1-.251.61,2.291,2.291,0,0,0-.3.26,1.066,1.066,0,0,1-.779.25c-1.362.02-2.724,0.01-4.085,0.01a1.463,1.463,0,0,1-1.413-1.43c0.033-1.38.01-2.76,0.01-4.13a1.41,1.41,0,0,1,1.538-1.36c1.326,0,2.653.02,3.98,0a1.39,1.39,0,0,1,1.376,1.37c-0.019,1.38,0,2.76-.008,4.15A1.163,1.163,0,0,1,261.5,4012.13Zm-5.534-2.37h0c0,0.64,0,1.28,0,1.92a0.226,0.226,0,0,0,.273.27q1.9-.015,3.792,0a0.212,0.212,0,0,0,.251-0.25c0-1.28,0-2.57,0-3.85a0.194,0.194,0,0,0-.225-0.23q-1.938.015-3.875,0a0.182,0.182,0,0,0-.217.22C255.973,4008.48,255.968,4009.12,255.968,4009.76Zm-0.773-12.02c-0.068-.02-0.114-0.04-0.186-0.06a1.484,1.484,0,0,1,1.032-.45c1.389,0.01,2.779,0,4.168.01a3.475,3.475,0,0,1,.62.1c-0.253.26-.476,0.5-0.7,0.73a0.563,0.563,0,0,0-.118.11,0.72,0.72,0,0,1-.717.35c-1-.03-2.007-0.01-3.011-0.01-0.3,0-.316.02-0.316,0.3,0,1.25,0,2.5,0,3.75a0.219,0.219,0,0,0,.267.27h3.79c0.2,0,.3-0.06.263-0.27a1.1,1.1,0,0,1,.444-1.13,9.594,9.594,0,0,0,.813-0.79c0.013,0.19.031,0.34,0.032,0.49,0,0.54.021,1.07-.007,1.6a2.743,2.743,0,0,1-.192.75,0.732,0.732,0,0,1-.234.22,1.116,1.116,0,0,1-.31.26,1.729,1.729,0,0,1-.626.15c-1.389.01-2.779-.01-4.169,0.01a1.437,1.437,0,0,1-1.36-1.37c0.031-1.36.006-2.73,0.013-4.1a2.253,2.253,0,0,1,.089-0.59c0.036-.12.072-0.3,0.291-0.24A0.658,0.658,0,0,0,255.2,3997.74Zm13.764,3.7c1.727,0,3.453.01,5.179,0a0.738,0.738,0,0,1,.607.27,0.554,0.554,0,0,1-.073.78,0.782,0.782,0,0,1-.733.24H263.834a0.651,0.651,0,0,1-.739-0.51,0.625,0.625,0,0,1,.539-0.76c1.2-.01,2.4-0.01,3.6-0.02h1.726Zm0.035,10.39h-5.178a0.67,0.67,0,0,1-.664-0.38,0.635,0.635,0,0,1,.469-0.89c0.091,0,.182-0.01.273-0.01q5.073,0,10.146.01a1.127,1.127,0,0,1,.478.1,0.624,0.624,0,0,1,.348.7,0.722,0.722,0,0,1-.651.47h-5.221Zm-1.792-11.91c-1.115,0-2.23-.03-3.344.01a0.821,0.821,0,0,1-.717-0.42,0.508,0.508,0,0,1,.116-0.64,0.957,0.957,0,0,1,.685-0.24h6.712a0.646,0.646,0,0,1,.165,1.28c-0.293.02-.588,0.01-0.882,0.01H267.2Zm-9.712-.62a3.817,3.817,0,0,1,.486.31c0.257,0.24.484,0.51,0.733,0.75a0.185,0.185,0,0,0,.188.02c0.254-.24.492-0.49,0.743-0.74,0.279-.26.571-0.52,0.849-0.79,0.177-.17.335-0.36,0.509-0.54,0.153-.15.32-0.29,0.475-0.44,0.168-.17.327-0.34,0.5-0.51a0.553,0.553,0,0,1,.647-0.05,0.434,0.434,0,0,1,.307.41,1.292,1.292,0,0,1,.019.27,0.718,0.718,0,0,1-.122.24,2.838,2.838,0,0,1-.191.25,0.169,0.169,0,0,1-.035.05c-0.611.57-1.156,1.2-1.769,1.75-0.15.14-.334,0.24-0.476,0.38s-0.226.33-.361,0.47c-0.187.19-.4,0.36-0.6,0.55-0.069.06-.107,0.16-0.18,0.22a0.653,0.653,0,0,1-.847-0.06c-0.464-.45-0.926-0.9-1.366-1.38a0.641,0.641,0,0,1,.105-1.04A2.762,2.762,0,0,1,257.49,3999.3Zm8.855-6.38H263.8a0.655,0.655,0,0,1-.694-0.5,0.293,0.293,0,0,1,.081-0.39,2.07,2.07,0,0,1,.106-0.22,1.653,1.653,0,0,1,.481-0.17,2.59,2.59,0,0,1,.483-0.01c1.411,0,2.821-.01,4.232,0a1.8,1.8,0,0,1,.757.1,0.65,0.65,0,0,1,.255.79,0.611,0.611,0,0,1-.565.39c-0.863-.02-1.726-0.01-2.589-0.01v0.02Zm-2.963,15.93c-0.066-.07-0.133-0.13-0.2-0.2a0.482,0.482,0,0,1-.093-0.14,0.716,0.716,0,0,1,.224-0.62,1.6,1.6,0,0,1,.516-0.15c0.883-.01,1.768,0,2.651,0a0.634,0.634,0,0,1,.637.42,1.1,1.1,0,0,1-.047.56,0.566,0.566,0,0,1-.552.32q-1.377.015-2.756,0a1.278,1.278,0,0,1-.4-0.14C263.37,4008.88,263.376,4008.87,263.382,4008.85Zm1.4-20.03c0.33,0,.66-0.01.989,0a0.716,0.716,0,0,1,.583.29,0.559,0.559,0,0,1-.1.77,0.814,0.814,0,0,1-.738.24c-0.568.01-1.137,0.02-1.7,0a0.917,0.917,0,0,1-.534-0.19,0.641,0.641,0,0,1,.225-1.07,1.077,1.077,0,0,1,.31-0.04C264.142,3988.81,264.464,3988.82,264.787,3988.82Z" transform="translate(-250.031 -3982.5)"/>
</svg>
