<svg xmlns="http://www.w3.org/2000/svg" width="21" height="20" viewBox="0 0 21 20">
  <defs>
    <style>
      .cls-1 {
        fill: #7beddc;
        fill-rule: evenodd;
      }
    </style>
  </defs>
  <path id="cherk" class="cls-1" d="M17.409,0A2.6,2.6,0,0,1,19.04,1.114L17.056,2.9l-0.04-.383H2.456V17.482H17.033V17.1c0-2.1,0-4.208,0-6.312a0.6,0.6,0,0,1,.219-0.508C17.9,9.715,18.53,9.131,19.17,8.554c0.08-.072.163-0.141,0.3-0.255V8.674q0,4.328,0,8.656a2.5,2.5,0,0,1-1.98,2.624,0.342,0.342,0,0,0-.077.046H2.07A2.49,2.49,0,0,1,.425,18.892,7.773,7.773,0,0,1,0,17.875V2.125A3.179,3.179,0,0,1,.637.81,2.825,2.825,0,0,1,2.07,0H17.409ZM21,5.437q-2.538,2.285-5.076,4.57-3.108,2.8-6.213,5.609c-0.075.068-.154,0.131-0.245,0.209L4.106,9.557,6.585,7.319,9.742,11l9.046-8.166c0.392,0.456.769,0.9,1.153,1.342,0.35,0.4.706,0.8,1.06,1.194V5.437Z"/>
</svg>
