<svg xmlns="http://www.w3.org/2000/svg" width="30" height="21" viewBox="0 0 30 21">
  <defs>
    <style>
      .cls-1 {
        fill: #fff;
        fill-rule: evenodd;
      }
    </style>
  </defs>
  <path id="e-mail" class="cls-1" d="M24.55,4.433L15,12.928,5.45,4.433a0.911,0.911,0,0,0-1.295.082,0.933,0.933,0,0,0,.082,1.308l10.158,9.035a0.91,0.91,0,0,0,1.213,0L25.763,5.823a0.933,0.933,0,0,0,.082-1.308,0.912,0.912,0,0,0-1.295-.082h0Zm0,0M26.991,0.5H3.009A2.768,2.768,0,0,0,.256,3.275v14.7a2.769,2.769,0,0,0,2.752,2.779H26.991a2.769,2.769,0,0,0,2.752-2.779V3.275A2.769,2.769,0,0,0,26.991.5h0Zm0.918,17.476a0.923,0.923,0,0,1-.918.926H3.009a0.923,0.923,0,0,1-.917-0.926V3.275a0.923,0.923,0,0,1,.917-0.926H26.991a0.923,0.923,0,0,1,.918.926v14.7Zm0,0"/>
</svg>
