<svg xmlns="http://www.w3.org/2000/svg" width="38" height="38" viewBox="0 0 38 38">
  <defs>
    <style>
      .cls-1 {
        fill: #fff;
        fill-rule: evenodd;
      }
    </style>
  </defs>
  <path id="fh-icon" class="cls-1" d="M37.69,17.157a18.841,18.841,0,0,0-1.206-4.952,24.437,24.437,0,0,0-1.067-2.33,18.388,18.388,0,0,0-7.911-7.608A19.336,19.336,0,0,0,23.959.9,17.01,17.01,0,0,0,18.3.3c-0.5.031-1.006,0.086-1.506,0.154A18.62,18.62,0,0,0,2.238,11.327a16.826,16.826,0,0,0-1,2.922,16.923,16.923,0,0,0-.566,4.242l0.016,1.491a15.977,15.977,0,0,0,.916,4.68A18.482,18.482,0,0,0,3.725,29.04a18.026,18.026,0,0,0,1.528,1.979,19.8,19.8,0,0,0,2.291,2.215A18.213,18.213,0,0,0,11.326,35.6a18.793,18.793,0,0,0,3.057,1.124,18.057,18.057,0,0,0,6.257.6,18.791,18.791,0,0,0,3.8-.758,17.273,17.273,0,0,0,1.983-.7,19.805,19.805,0,0,0,1.985-.986,18.484,18.484,0,0,0,2.732-1.914,19.566,19.566,0,0,0,2.239-2.248,17.493,17.493,0,0,0,1.633-2.263A18.451,18.451,0,0,0,36.1,26.359c0.234-.528.44-1.066,0.635-1.606,0.185-.512.312-1.047,0.459-1.573a16.561,16.561,0,0,0,.584-4.023A16.848,16.848,0,0,0,37.69,17.157Zm-36.9-.549s0,0,0,0S0.785,16.609.785,16.608Zm0,0.511c0,0.019-.006.037-0.011,0.056C0.781,17.156.784,17.138,0.787,17.119Zm0.008-.093c0-.018,0-0.036,0-0.054C0.8,16.99.8,17.008,0.795,17.026Zm32.192,4.207a12.8,12.8,0,0,1-1.21,3.674,23.56,23.56,0,0,1-1.333,2.251,5.749,5.749,0,0,1-.7.843,16.947,16.947,0,0,1-2.018,1.9,16.2,16.2,0,0,1-2.109,1.351,16.267,16.267,0,0,1-3.2,1.2,14.908,14.908,0,0,1-5.439.115,16.726,16.726,0,0,1-4.569-1.5,14.166,14.166,0,0,1-3.555-2.828,14.383,14.383,0,0,1-2.464-3.81,14.566,14.566,0,0,1-.825-2.517,1.749,1.749,0,0,1-.021-0.316,0.546,0.546,0,0,1-.1-0.48c-0.013-.07.073-0.074,0.13-0.075,0.116,0,.231,0,0.347,0l8.551,0.007c0.044-.044.245,0.068,0.1-0.163a3.842,3.842,0,0,1-.331-1.139,3.621,3.621,0,0,1-.1-1.158A4.952,4.952,0,0,1,14.526,17a2.6,2.6,0,0,1,.084-0.265c0.007-.206-0.154-0.136-0.249-0.137-0.54-.007-1.079,0-1.619,0q-3.484,0-6.968,0c-0.11,0-.3.061-0.315-0.047a0.441,0.441,0,0,1,.083-0.5A6.042,6.042,0,0,1,5.8,14.848a13.945,13.945,0,0,1,1.113-2.685,14.124,14.124,0,0,1,1.328-2.03A13.75,13.75,0,0,1,11.664,7.02a12.969,12.969,0,0,1,2.63-1.312A17.685,17.685,0,0,1,16.972,5a13.04,13.04,0,0,1,3.364-.146,13.6,13.6,0,0,1,2.671.5,14.934,14.934,0,0,1,3.6,1.589,0.769,0.769,0,0,1,.317.186,0.219,0.219,0,0,0,.163.066,0.1,0.1,0,0,0-.029-0.045,0.125,0.125,0,0,0-.086-0.022,0.125,0.125,0,0,1,.086.022,0.1,0.1,0,0,1,.029.045,0.024,0.024,0,0,1,.02.028A26.467,26.467,0,0,1,29.182,9a13.808,13.808,0,0,1,2.495,3.474,13.442,13.442,0,0,1,.96,2.466,16.452,16.452,0,0,1,.5,2.85A13.07,13.07,0,0,1,32.987,21.233Zm-0.7-15.515a0.088,0.088,0,0,0-.081-0.095A0.1,0.1,0,0,0,32.289,5.718ZM19.066,28.365a7.345,7.345,0,0,1-1.916-.206,9.15,9.15,0,0,1-1.674-.543A8.558,8.558,0,0,1,12.918,26c-0.49-.453-0.48-0.462-0.022-0.919,0.838-.836,1.68-1.667,2.509-2.512,0.18-.184.265-0.176,0.461,0a4.917,4.917,0,0,0,2.816,1.248,5.1,5.1,0,0,0,1.574-.1,4.4,4.4,0,0,0,2.289-1.189c0.134-.13.2-0.176,0.36-0.016,0.965,0.979,1.943,1.944,2.916,2.915,0.079,0.079.17,0.147,0.016,0.264-0.489.373-.939,0.793-1.455,1.134a9.173,9.173,0,0,1-2.529,1.15A9.453,9.453,0,0,1,19.066,28.365Zm6.8-16.3a0.42,0.42,0,0,1-.106.178q-1.465,1.451-2.919,2.914c-0.1.1-.151,0.085-0.231,0a4.8,4.8,0,0,0-1.967-1.165,2.711,2.711,0,0,0-.957-0.164,7.436,7.436,0,0,0-1.752.118,4.809,4.809,0,0,0-1.507.679,3.591,3.591,0,0,0-.692.546c-0.108.125-.167,0.033-0.249-0.049q-1.135-1.136-2.278-2.263c-0.188-.187-0.37-0.38-0.565-0.559a0.247,0.247,0,0,1,.005-0.433,9.081,9.081,0,0,1,2.562-1.728A10.032,10.032,0,0,1,19.5,9.269a9.982,9.982,0,0,1,4.315,1.206,8.013,8.013,0,0,1,1.962,1.454A0.932,0.932,0,0,1,25.868,12.063Zm-4.406,6.762c0,0.809-.007,1.618,0,2.427a0.747,0.747,0,0,1-.552.661,3.243,3.243,0,0,1-3.463-.044c-0.047-.031-0.113-0.035-0.159-0.067a0.717,0.717,0,0,1-.4-0.638c0.019-1.58.013-3.16,0-4.74a0.509,0.509,0,0,1,.223-0.463,3.509,3.509,0,0,1,2.439-.7A3.612,3.612,0,0,1,21.294,16a0.421,0.421,0,0,1,.171.373C21.459,17.187,21.462,18.006,21.463,18.825Z"/>
</svg>
