<svg xmlns="http://www.w3.org/2000/svg" width="30" height="30" viewBox="0 0 30 30">
  <defs>
    <style>
      .cls-1 {
        fill: #fff;
        fill-rule: evenodd;
      }
    </style>
  </defs>
  <path id="insta" class="cls-1" d="M15,3.276c3.818,0,4.27.014,5.778,0.083a7.912,7.912,0,0,1,2.656.493,4.428,4.428,0,0,1,1.644,1.07,4.429,4.429,0,0,1,1.07,1.644,7.914,7.914,0,0,1,.493,2.656c0.068,1.508.083,1.96,0.083,5.778s-0.015,4.27-.083,5.778a7.912,7.912,0,0,1-.493,2.655,4.734,4.734,0,0,1-2.714,2.714,7.9,7.9,0,0,1-2.656.493c-1.508.069-1.96,0.083-5.778,0.083s-4.271-.014-5.779-0.083a7.9,7.9,0,0,1-2.655-.493,4.432,4.432,0,0,1-1.645-1.069,4.434,4.434,0,0,1-1.07-1.645,7.923,7.923,0,0,1-.493-2.655C3.291,19.27,3.276,18.818,3.276,15s0.015-4.27.083-5.778a7.925,7.925,0,0,1,.493-2.656,4.435,4.435,0,0,1,1.07-1.644,4.43,4.43,0,0,1,1.645-1.07,7.906,7.906,0,0,1,2.655-.493c1.508-.069,1.96-0.083,5.779-0.083M15,0.7c-3.884,0-4.371.017-5.9,0.086a10.5,10.5,0,0,0-3.471.665A7.008,7.008,0,0,0,3.1,3.1,7.006,7.006,0,0,0,1.451,5.633,10.487,10.487,0,0,0,.786,9.1C0.716,10.629.7,11.116,0.7,15s0.016,4.371.086,5.9a10.487,10.487,0,0,0,.665,3.471A7.006,7.006,0,0,0,3.1,26.9a7.008,7.008,0,0,0,2.533,1.649,10.5,10.5,0,0,0,3.471.665c1.525,0.07,2.012.086,5.9,0.086s4.371-.017,5.9-0.086a10.5,10.5,0,0,0,3.471-.665,7.313,7.313,0,0,0,4.183-4.182,10.5,10.5,0,0,0,.665-3.471c0.069-1.525.086-2.012,0.086-5.9s-0.016-4.371-.086-5.9a10.5,10.5,0,0,0-.665-3.471A7.01,7.01,0,0,0,26.9,3.1,7.007,7.007,0,0,0,24.367,1.45,10.5,10.5,0,0,0,20.9.786C19.371,0.716,18.884.7,15,.7m0,6.957A7.343,7.343,0,1,0,22.343,15,7.343,7.343,0,0,0,15,7.656m0,12.11A4.767,4.767,0,1,1,19.767,15,4.767,4.767,0,0,1,15,19.767m9.35-12.4A1.716,1.716,0,1,1,22.634,5.65,1.716,1.716,0,0,1,24.35,7.366"/>
</svg>
