<svg xmlns="http://www.w3.org/2000/svg" width="25" height="24" viewBox="0 0 25 24">
  <defs>
    <style>
      .cls-1 {
        fill: #fff;
        fill-rule: evenodd;
      }
    </style>
  </defs>
  <path id="person-icon" class="cls-1" d="M21.04,14.977a12.1,12.1,0,0,0-4.579-2.736A6.514,6.514,0,0,0,19.41,5.78a6.837,6.837,0,0,0-6.067-5.6A6.859,6.859,0,0,0,5.554,6.771a6.555,6.555,0,0,0,3.024,5.47A12.105,12.105,0,0,0,4,14.977,11.175,11.175,0,0,0,.512,22.132a0.917,0.917,0,0,0,.943.964,0.921,0.921,0,0,0,.934-0.821,10,10,0,0,1,10.13-8.866,10,10,0,0,1,10.13,8.866,0.943,0.943,0,0,0,1.877-.143A11.174,11.174,0,0,0,21.04,14.977Zm-8.52-3.363A4.973,4.973,0,0,1,7.437,6.771,4.973,4.973,0,0,1,12.52,1.927,4.973,4.973,0,0,1,17.6,6.771,4.973,4.973,0,0,1,12.52,11.614Z"/>
</svg>
