<svg xmlns="http://www.w3.org/2000/svg" width="28" height="29" viewBox="0 0 28 29">
  <defs>
    <style>
      .cls-1 {
        fill: #fff;
        fill-rule: evenodd;
      }
    </style>
  </defs>
  <path id="phone" class="cls-1" d="M23.73,4.153A12.224,12.224,0,0,0,14.988.5a0.989,0.989,0,0,0,0,1.978,10.288,10.288,0,0,1,7.357,3.076,10.488,10.488,0,0,1,3.048,7.428,0.98,0.98,0,1,0,1.959,0A12.459,12.459,0,0,0,23.73,4.153ZM19.7,12.979a0.98,0.98,0,1,0,1.959,0,6.712,6.712,0,0,0-6.672-6.736,0.989,0.989,0,0,0,0,1.978A4.741,4.741,0,0,1,19.7,12.979Zm-2.168,5.043A2.955,2.955,0,0,0,14.914,19.6a1,1,0,0,0,.255,1.375,0.974,0.974,0,0,0,1.362-.258A1.06,1.06,0,0,1,17.422,20a12.635,12.635,0,0,1,4.521,3.343,1.03,1.03,0,0,1-.009.722A3.4,3.4,0,0,1,20.256,26.2a3.113,3.113,0,0,1-2.518-.086,27.66,27.66,0,0,1-9.082-5.97l0,0a27.97,27.97,0,0,1-5.9-9.157,3.2,3.2,0,0,1-.085-2.543A3.387,3.387,0,0,1,4.779,6.743a1,1,0,0,1,.713-0.01A12.762,12.762,0,0,1,8.806,11.29a1.06,1.06,0,0,1-.716.909,1,1,0,0,0-.256,1.375,0.974,0.974,0,0,0,1.362.258,2.986,2.986,0,0,0,1.567-2.646C10.678,9.6,7.633,5.421,6.179,4.881a2.933,2.933,0,0,0-2.024-.012A5.287,5.287,0,0,0,.884,7.614a5.134,5.134,0,0,0,.052,4.113A29.933,29.933,0,0,0,7.27,21.539l0.02,0.02A29.613,29.613,0,0,0,17,27.943a5.762,5.762,0,0,0,2.187.46,4.45,4.45,0,0,0,1.886-.409,5.307,5.307,0,0,0,2.719-3.3,3.017,3.017,0,0,0-.01-2.038C23.246,21.181,19.1,18.108,17.533,18.022Z"/>
</svg>
