<svg xmlns="http://www.w3.org/2000/svg" width="33" height="28" viewBox="0 0 33 28">
  <defs>
    <style>
      .cls-1 {
        fill: #fff;
        fill-rule: evenodd;
      }
    </style>
  </defs>
  <path id="project-icon" class="cls-1" d="M32.115,8.616v4.143a2.207,2.207,0,0,0-.065.238,4.888,4.888,0,0,1-3.462,4.134c-0.63.217-1.285,0.362-1.934,0.515a42.868,42.868,0,0,1-6.124.927c-0.473.041-.948,0.058-1.449,0.087,0-.313,0-0.572,0-0.832a2,2,0,0,0-2.07-2.079q-0.956-.012-1.913,0a2,2,0,0,0-2.065,2.085c0,0.267,0,.535,0,0.8-0.245,0-.444.014-0.64,0C11.582,18.56,10.77,18.49,9.96,18.4a33.438,33.438,0,0,1-6.407-1.265A4.844,4.844,0,0,1,.2,13.668C0.116,13.39.065,13.1,0,12.822V8.428A6.283,6.283,0,0,1,.409,7.323,2.86,2.86,0,0,1,2.99,5.937c1.222-.023,2.444-0.006,3.667-0.006H7.006a1.086,1.086,0,0,1,1.286-1H9.031c0.009-.1.014-0.15,0.019-0.2A4,4,0,0,1,13.155.911q2.962-.01,5.923,0a3.976,3.976,0,0,1,3.8,2.793,12.048,12.048,0,0,1,.248,1.222h0.635a1.113,1.113,0,0,1,1.363,1h0.364c1.212,0,2.424-.007,3.636,0a2.98,2.98,0,0,1,2.874,2.233Q32.054,8.392,32.115,8.616Zm-12.03-2.7c0-.331,0-0.623,0-0.915,0-.063,0-0.126,0-0.188A0.987,0.987,0,0,0,19.159,3.9q-3.087-.017-6.174,0a0.955,0.955,0,0,0-.933.823,11.128,11.128,0,0,0-.009,1.191h8.042ZM31.1,17.549c0,2.575.028,5.075-.01,7.574A2.966,2.966,0,0,1,28.041,28Q20.2,28,12.362,28q-4.139,0-8.279,0a2.986,2.986,0,0,1-2.96-2.248,2.854,2.854,0,0,1-.1-0.711c-0.007-2.437,0-4.874,0-7.311a0.768,0.768,0,0,1,.006-0.084,17.468,17.468,0,0,0,1.7.738,39.466,39.466,0,0,0,8.061,1.739c0.736,0.074,1.474.139,2.254,0.212,0,0.282,0,.571,0,0.86a1.991,1.991,0,0,0,1.951,2q1.065,0.03,2.132,0a1.994,1.994,0,0,0,1.963-2.027c0-.271,0-0.543,0-0.844,0.349-.029.688-0.06,1.028-0.083A41.917,41.917,0,0,0,28.8,18.778,6.4,6.4,0,0,0,31.1,17.549Zm-17.032,1.9c0-.471,0-0.941,0-1.411A0.992,0.992,0,0,1,15.1,16.979q0.956-.01,1.912,0a0.994,0.994,0,0,1,1.039,1.05q0.009,1.443,0,2.886a1,1,0,0,1-1.065,1.056q-0.925.006-1.849,0a1,1,0,0,1-1.071-1.083c0-.241,0-0.481,0-0.722s0-.481,0-0.721h0Z"/>
</svg>
