<svg xmlns="http://www.w3.org/2000/svg" width="29" height="29" viewBox="0 0 29 29">
  <defs>
    <style>
      .cls-1 {
        fill: #fff;
        fill-rule: evenodd;
      }
    </style>
  </defs>
  <path id="skype" class="cls-1" d="M1.374,14.636A12.993,12.993,0,0,0,16.812,27.46a7.528,7.528,0,0,0,3.919,1.094,7.627,7.627,0,0,0,6.446-11.64,13.257,13.257,0,0,0,.2-2.277A12.994,12.994,0,0,0,11.981,1.8,7.525,7.525,0,0,0,8.042.7,7.625,7.625,0,0,0,1.583,12.317,13.134,13.134,0,0,0,1.374,14.636ZM14.516,5.36c4.194,0.247,6.649,2.1,6.888,3.828a1.771,1.771,0,0,1-1.93,2.009c-1.9,0-2.09-2.539-5.356-2.539-1.473,0-2.717.615-2.717,1.949,0,2.788,10.466,1.169,10.466,7.307,0,3.538-2.821,5.856-7.031,5.856-3.7,0-7.425-1.685-7.406-4.587A1.627,1.627,0,0,1,8.95,17.5c2.181,0,2.161,3.253,5.633,3.253,2.435,0,3.267-1.334,3.267-2.265,0-3.359-10.527-1.3-10.527-7.616C7.323,7.459,10.12,5.1,14.516,5.36Z"/>
</svg>
