<svg xmlns="http://www.w3.org/2000/svg" width="29" height="27" viewBox="0 0 29 27">
  <defs>
    <style>
      .cls-1 {
        fill: #fff;
        fill-rule: evenodd;
      }
    </style>
  </defs>
  <path id="Teleg" class="cls-1" d="M28.5,2.952c-0.062.339-.154,0.868-0.258,1.4q-1.29,6.6-2.584,13.2c-0.432,2.206-.852,4.416-1.3,6.62a2.346,2.346,0,0,1-1.7,1.851,2.694,2.694,0,0,1-2.066-.156,5.513,5.513,0,0,1-.849-0.614q-2.2-1.685-4.4-3.376a0.166,0.166,0,0,0-.259.024c-0.976.894-1.962,1.776-2.932,2.676a1.688,1.688,0,0,1-2.59-.349,6.969,6.969,0,0,1-.536-1.266c-0.637-2.021-1.253-4.049-1.872-6.076a0.311,0.311,0,0,0-.226-0.231q-2.539-.845-5.075-1.7a2.782,2.782,0,0,1-1.531-1.14,1.816,1.816,0,0,1,.388-2.433,3.649,3.649,0,0,1,.872-0.539q5.493-2.327,11-4.63Q17.229,4.258,21.876,2.3q1.776-.746,3.558-1.479A2.345,2.345,0,0,1,27.273.755,2.1,2.1,0,0,1,28.5,2.952ZM2.529,12.816l0.011,0.05c0.073,0.026.145,0.054,0.218,0.079q2.97,1,5.938,2A0.406,0.406,0,0,0,9.088,14.9q1.484-.929,2.976-1.847,4.808-2.973,9.617-5.944a7.784,7.784,0,0,1,.786-0.419,0.268,0.268,0,0,1,.37.058,0.344,0.344,0,0,1-.047.446c-0.108.112-.213,0.227-0.327,0.333q-5.141,4.786-10.286,9.568a0.613,0.613,0,0,0-.2.38c-0.176,1.14-.36,2.279-0.54,3.418-0.081.511-.158,1.022-0.237,1.533l0.035,0.026L15.1,18.937c0.057,0.04.1,0.068,0.141,0.1L20.147,22.8c0.453,0.347.9,0.7,1.364,1.036,0.326,0.235.674,0.214,0.752-.3,0.089-.582.218-1.159,0.331-1.737q1.072-5.475,2.145-10.949,0.7-3.6,1.4-7.192c0.05-.258.1-0.517,0.156-0.835Z"/>
</svg>
