<svg xmlns="http://www.w3.org/2000/svg" width="29" height="31" viewBox="0 0 29 31">
  <defs>
    <style>
      .cls-1 {
        fill: #fff;
        fill-rule: evenodd;
      }
    </style>
  </defs>
  <path id="Viber" class="cls-1" d="M8.826,30.106a0.523,0.523,0,0,0-.067-0.028,0.976,0.976,0,0,1-.443-1.641c0.561-.584,1.132-1.157,1.7-1.735,0.5-.514,1.015-1.022,1.51-1.545a1.168,1.168,0,0,1,.919-0.386c1.047,0.012,2.095-.011,3.142.008a14.416,14.416,0,0,0,3.02-.239,14.507,14.507,0,0,0,3.461-1.054,6.769,6.769,0,0,0,3.9-5.063,13.4,13.4,0,0,0,.261-2.613c0.006-1.529.014-3.059,0-4.588A9.968,9.968,0,0,0,25.6,7.752,6.99,6.99,0,0,0,22.054,3.9a12.183,12.183,0,0,0-3.585-1.09A25.62,25.62,0,0,0,13,2.625a22.86,22.86,0,0,0-4.214.581A10.3,10.3,0,0,0,5.664,4.473,6.255,6.255,0,0,0,2.9,8.446a12.107,12.107,0,0,0-.32,2.756c-0.012,1.52-.029,3.04,0,4.558A10.152,10.152,0,0,0,4.242,21.3a5.586,5.586,0,0,0,2.738,2.26,5.534,5.534,0,0,0,.81.22,0.98,0.98,0,0,1,.83,1.171,0.968,0.968,0,0,1-1.19.748,7.091,7.091,0,0,1-4.319-2.663A11.032,11.032,0,0,1,1.04,18.677a12.739,12.739,0,0,1-.362-2.524,1.464,1.464,0,0,0-.024-0.16V11.058c0.009-.1.022-0.2,0.026-0.3a13.74,13.74,0,0,1,.448-3.069A8.115,8.115,0,0,1,3.943,3.326,10.8,10.8,0,0,1,7.77,1.46,23.766,23.766,0,0,1,13.035.672c0.328-.017.656-0.037,0.984-0.056h1.888c0.043,0.007.086,0.017,0.13,0.021C16.858,0.71,17.683.755,18.5,0.861a13.888,13.888,0,0,1,4.166,1.187A8.993,8.993,0,0,1,26.529,5.36,10.711,10.711,0,0,1,28.09,10.3c0.021,0.243.04,0.487,0.06,0.73V16.2c-0.008.059-.021,0.117-0.024,0.176a14.507,14.507,0,0,1-.273,2.341A9.572,9.572,0,0,1,26.4,22.3a8.871,8.871,0,0,1-3.825,3.082,16.492,16.492,0,0,1-3.844,1.11,14.416,14.416,0,0,1-2.845.232c-1.012-.021-2.025,0-3.038-0.007a0.326,0.326,0,0,0-.258.108c-0.9.928-1.815,1.851-2.719,2.78a1.607,1.607,0,0,1-.718.5H8.826Zm8.636-7.634a4.851,4.851,0,0,1-1.817-.5,17.679,17.679,0,0,1-5.381-3.652,17.117,17.117,0,0,1-3.178-4.455,18.66,18.66,0,0,1-.769-1.721A3.262,3.262,0,0,1,8.168,7.78a2.184,2.184,0,0,1,1.7-.121,2.018,2.018,0,0,1,.608.357,8.738,8.738,0,0,1,2.248,3.143,1.868,1.868,0,0,1-.483,2.165,1.841,1.841,0,0,1-.745.5,0.941,0.941,0,0,1-1.1-.495,0.983,0.983,0,0,1,.257-1.206,2.1,2.1,0,0,1,.2-0.152,0.149,0.149,0,0,0,.053-0.226A9.037,9.037,0,0,0,9.38,9.6a0.274,0.274,0,0,0-.356-0.07C8.919,9.586,8.806,9.624,8.7,9.681a1.227,1.227,0,0,0-.648,1.611,15.212,15.212,0,0,0,.78,1.78A15.092,15.092,0,0,0,16.6,20.265a2.3,2.3,0,0,0,.835.223,1.078,1.078,0,0,0,.84-0.331,1.924,1.924,0,0,0,.466-0.841,0.244,0.244,0,0,0-.049-0.2,5.267,5.267,0,0,0-.614-0.583c-0.464-.345-0.937-0.678-1.425-0.985-0.263-.166-0.22-0.161-0.4.1a0.973,0.973,0,0,1-.724.461,0.9,0.9,0,0,1-.871-0.4,0.891,0.891,0,0,1-.089-0.967A2.145,2.145,0,0,1,16.141,15.5a1.852,1.852,0,0,1,1.117.187,9.3,9.3,0,0,1,2.832,2.1,2.1,2.1,0,0,1,.424,2.287,3.317,3.317,0,0,1-2.2,2.248A7.366,7.366,0,0,1,17.462,22.472Zm5.223-9.784a2.905,2.905,0,0,1-.081.512,0.931,0.931,0,0,1-1.027.624,0.943,0.943,0,0,1-.806-0.87,6.827,6.827,0,0,0-.233-1.707A5.709,5.709,0,0,0,15.89,7.057C15.568,7,15.235,7,14.907,6.972a0.951,0.951,0,0,1-.829-0.705,0.962,0.962,0,0,1,.929-1.231,7.344,7.344,0,0,1,4.874,1.789,7.73,7.73,0,0,1,2.711,4.915C22.637,12.036,22.651,12.338,22.684,12.689ZM15.153,8.461a4.346,4.346,0,0,1,4.089,3.627,5.529,5.529,0,0,1,.067.717,0.953,0.953,0,1,1-1.9.062,2.437,2.437,0,0,0-2.015-2.423,3.385,3.385,0,0,0-.425-0.039,0.972,0.972,0,0,1,.055-1.943h0.133Z"/>
</svg>
