<svg xmlns="http://www.w3.org/2000/svg" width="30" height="29" viewBox="0 0 30 29">
  <defs>
    <style>
      .cls-1 {
        fill: #fff;
        fill-rule: evenodd;
      }
    </style>
  </defs>
  <path id="WA" class="cls-1" d="M29.736,13.9A14.2,14.2,0,0,0,15.29.365,14.165,14.165,0,0,0,.876,13.64a3.742,3.742,0,0,0-.032.6,13.559,13.559,0,0,0,2.075,7.179L0.3,28.88l8.013-2.46a14.88,14.88,0,0,0,6.976,1.718c7.982,0,14.462-6.2,14.462-13.894,0-.123-0.015-0.217-0.015-0.34h0Zm-7.822,3.156c-0.366-.171-2.09-1.006-2.41-1.13a0.589,0.589,0,0,0-.814.186,14.813,14.813,0,0,1-1.117,1.315,0.536,0.536,0,0,1-.75.108,9.033,9.033,0,0,1-2.857-1.7A10.178,10.178,0,0,1,11.986,13.5a0.536,0.536,0,0,1,.143-0.727,4.089,4.089,0,0,0,.543-0.588A0.6,0.6,0,0,0,12.8,12.03a3.343,3.343,0,0,0,.223-0.4,0.52,0.52,0,0,0-.032-0.588c-0.064-.17-0.782-1.872-1.086-2.538-0.286-.7-0.591-0.572-0.781-0.572C10.9,7.93,10.677,7.9,10.437,7.9a1.236,1.236,0,0,0-.942.433,3.628,3.628,0,0,0-1.262,2.847,3.465,3.465,0,0,0,.207,1.145,7.532,7.532,0,0,0,1.246,2.367,14.2,14.2,0,0,0,6.049,5.136c3.624,1.362,3.624.9,4.262,0.851a3.522,3.522,0,0,0,2.395-1.625,2.71,2.71,0,0,0,.192-1.625,2.044,2.044,0,0,0-.671-0.371h0ZM15.29,25.94a12.385,12.385,0,0,1-6.672-1.934L3.957,25.445l1.5-4.347a11.345,11.345,0,0,1-2.315-6.854,8.965,8.965,0,0,1,.064-1.129A12,12,0,0,1,15.29,2.562,11.975,11.975,0,0,1,27.4,13.33a8.737,8.737,0,0,1,.032.913A11.947,11.947,0,0,1,15.29,25.94h0Z"/>
</svg>
